FFmpeg version SVN-r25716, Copyright (c) 2000-2010 the FFmpeg developers  built on Nov 10 2010 12:23:18 with gcc 4.1.2 20080704 (Red Hat 4.1.2-48)  configuration: --enable-libmp3lame --enable-shared --disable-mmx --arch=x86_64  libavutil     50.33. 0 / 50.33. 0  libavcore      0.12. 1 /  0.12. 1  libavcodec    52.94. 4 / 52.94. 4  libavformat   52.84. 0 / 52.84. 0  libavdevice   52. 2. 2 / 52. 2. 2  libavfilter    1.59. 0 /  1.59. 0  libswscale     0.12. 0 /  0.12. 0Seems stream 0 codec frame rate differs from container frame rate: 1200.00 (1200/1) -> 30.00 (30/1)Input #0, mov,mp4,m4a,3gp,3g2,mj2, from '/RAID10/data/converted_video_files/42155.mov':  Metadata:    major_brand     : qt      minor_version   : 537199360    compatible_brands: qt    Duration: 00:00:07.33, start: 0.000000, bitrate: 3625 kb/s    Stream #0.0(eng): Video: h264, yuv420p, 512x512, 3621 kb/s, 30 fps, 30 tbr, 600 tbn, 1200 tbc[buffer @ 0x1a036030] w:512 h:512 pixfmt:yuv420pOutput #0, flv, to '/RAID10/data/converted_video_files/42155.flv':  Metadata:    encoder         : Lavf52.84.0    Stream #0.0(eng): Video: flv, yuv420p, 512x512, q=2-31, 600 kb/s, 1k tbn, 24 tbcStream mapping:  Stream #0.0 -> #0.0Press [q] to stop encodingframe=   50 fps=  0 q=9.1 size=     312kB time=2.08 bitrate=1228.3kbits/s dup=0 drop=12    frame=  112 fps=109 q=11.2 size=     518kB time=4.67 bitrate= 908.6kbits/s dup=0 drop=28    frame=  171 fps=112 q=11.0 size=     713kB time=7.12 bitrate= 820.2kbits/s dup=0 drop=42    frame=  176 fps=110 q=12.2 Lsize=     726kB time=7.33 bitrate= 810.9kbits/s dup=0 drop=44    video:723kB audio:0kB global headers:0kB muxing overhead 0.408782%